<?xml version="1.0" encoding="UTF-8" standalone="no"?>
<svg
   xmlns:dc="http://purl.org/dc/elements/1.1/"
   xmlns:cc="http://creativecommons.org/ns#"
   xmlns:rdf="http://www.w3.org/1999/02/22-rdf-syntax-ns#"
   xmlns:svg="http://www.w3.org/2000/svg"
   xmlns="http://www.w3.org/2000/svg"
   xmlns:sodipodi="http://sodipodi.sourceforge.net/DTD/sodipodi-0.dtd"
   xmlns:inkscape="http://www.inkscape.org/namespaces/inkscape"
   width="16"
   height="16"
   viewBox="0 0 16 16"
   version="1.1"
   id="svg17"
   sodipodi:docname="css.svg"
   inkscape:version="1.0.1 (3bc2e813f5, 2020-09-07)">
  <metadata
     id="metadata23">
    <rdf:RDF>
      <cc:Work
         rdf:about="">
        <dc:format>image/svg+xml</dc:format>
        <dc:type
           rdf:resource="http://purl.org/dc/dcmitype/StillImage" />
      </cc:Work>
    </rdf:RDF>
  </metadata>
  <defs
     id="defs21" />
  <sodipodi:namedview
     pagecolor="#ffffff"
     bordercolor="#666666"
     borderopacity="1"
     objecttolerance="10"
     gridtolerance="10"
     guidetolerance="10"
     inkscape:pageopacity="0"
     inkscape:pageshadow="2"
     inkscape:window-width="1920"
     inkscape:window-height="1017"
     id="namedview19"
     showgrid="false"
     inkscape:zoom="53.125"
     inkscape:cx="8"
     inkscape:cy="8"
     inkscape:window-x="-8"
     inkscape:window-y="-8"
     inkscape:window-maximized="1"
     inkscape:current-layer="g15" />
  <rect
     id="frame"
     width="16"
     height="16"
     fill="none" />
  <g
     fill="none"
     fill-rule="evenodd"
     id="g15">
    <path
       fill="#9AA7B0"
       fill-opacity=".8"
       d="M7 1L3 5h4z"
       id="path3" />
    <path
       fill="#9AA7B0"
       fill-opacity=".8"
       d="M8 1v5H3v2h10V1z"
       id="path5" />
    <path
       fill="#40B6E0"
       fill-opacity=".7"
       d="M1 16h15V9H1z"
       id="path7" />
    <path
       fill="#231f20"
       fill-opacity="0.7"
       d="m 3.4553529,11.502 c 0,-0.369 0.311,-0.502 0.872,-0.502 h 1.155 v -1 h -1.14 c -1.082,0 -1.86,0.46 -1.86,1.45 0,0.865 0.42,1.24 1.471,1.466 0.77,0.165 1.025,0.313 1.025,0.632 0,0.32 -0.358,0.452 -1.025,0.452 h -1.171 v 1 h 1.171 c 2.029,0 2.029,-1 2.029,-1.452 0,-0.632 -0.48,-1.127 -1.341,-1.401 -0.862,-0.274 -1.186,-0.277 -1.186,-0.645 z"
       id="path11" />
  </g>
</svg>
